Coordinates
version=1
nRows=36
nColumns=21
inDegrees=no
endheader
time	ra_wr_s_p	ra_wr_e_f	ra_cmc1_ad_ab	ra_cmc1_f_e	ra_mcp1_f_e	ra_ip1_f_e	ra_mcp2_e_f	ra_pip2_e_f	ra_dip2_e_f	ra_mcp3_e_f	ra_pip3_e_f	ra_dip3_e_f	ra_mcp4_e_f	ra_pip4_e_f	ra_dip4_e_f	ra_mcp5_e_f	ra_pip5_e_f	ra_dip5_e_f	ra_el_e_f	ra_wr_ad_ab
0.250000	0.000000	0.613377	0.436350	0.436350	-0.392700	-0.785400	0.785400	1.047200	0.785400	0.785400	1.047200	0.785400	0.785400	1.047200	0.785400	0.785400	1.047200	0.785400	1.129096	-0.089823
0.251000	0.000000	0.618332	0.436350	0.436350	-0.392700	-0.785400	0.785400	1.047200	0.785400	0.785400	1.047200	0.785400	0.785400	1.047200	0.785400	0.785400	1.047200	0.785400	1.118362	-0.091470
0.252000	0.000000	0.623285	0.436350	0.436350	-0.392700	-0.785400	0.785400	1.047200	0.785400	0.785400	1.047200	0.785400	0.785400	1.047200	0.785400	0.785400	1.047200	0.785400	1.107630	-0.093116
0.253000	0.000000	0.628236	0.436350	0.436350	-0.392700	-0.785400	0.785400	1.047200	0.785400	0.785400	1.047200	0.785400	0.785400	1.047200	0.785400	0.785400	1.047200	0.785400	1.096903	-0.094761
0.254000	0.000000	0.633184	0.436350	0.436350	-0.392700	-0.785400	0.785400	1.047200	0.785400	0.785400	1.047200	0.785400	0.785400	1.047200	0.785400	0.785400	1.047200	0.785400	1.086183	-0.096405
0.255000	0.000000	0.638128	0.436350	0.436350	-0.392700	-0.785400	0.785400	1.047200	0.785400	0.785400	1.047200	0.785400	0.785400	1.047200	0.785400	0.785400	1.047200	0.785400	1.075471	-0.098048
0.256000	0.000000	0.643067	0.436350	0.436350	-0.392700	-0.785400	0.785400	1.047200	0.785400	0.785400	1.047200	0.785400	0.785400	1.047200	0.785400	0.785400	1.047200	0.785400	1.064769	-0.099690
0.257000	0.000000	0.648001	0.436350	0.436350	-0.392700	-0.785400	0.785400	1.047200	0.785400	0.785400	1.047200	0.785400	0.785400	1.047200	0.785400	0.785400	1.047200	0.785400	1.054079	-0.101329
0.258000	0.000000	0.652928	0.436350	0.436350	-0.392700	-0.785400	0.785400	1.047200	0.785400	0.785400	1.047200	0.785400	0.785400	1.047200	0.785400	0.785400	1.047200	0.785400	1.043403	-0.102967
0.259000	0.000000	0.657849	0.436350	0.436350	-0.392700	-0.785400	0.785400	1.047200	0.785400	0.785400	1.047200	0.785400	0.785400	1.047200	0.785400	0.785400	1.047200	0.785400	1.032742	-0.104602
0.260000	0.000000	0.662761	0.436350	0.436350	-0.392700	-0.785400	0.785400	1.047200	0.785400	0.785400	1.047200	0.785400	0.785400	1.047200	0.785400	0.785400	1.047200	0.785400	1.022099	-0.106234
0.261000	0.000000	0.667664	0.436350	0.436350	-0.392700	-0.785400	0.785400	1.047200	0.785400	0.785400	1.047200	0.785400	0.785400	1.047200	0.785400	0.785400	1.047200	0.785400	1.011475	-0.107864
0.262000	0.000000	0.672558	0.436350	0.436350	-0.392700	-0.785400	0.785400	1.047200	0.785400	0.785400	1.047200	0.785400	0.785400	1.047200	0.785400	0.785400	1.047200	0.785400	1.000872	-0.109490
0.263000	0.000000	0.677441	0.436350	0.436350	-0.392700	-0.785400	0.785400	1.047200	0.785400	0.785400	1.047200	0.785400	0.785400	1.047200	0.785400	0.785400	1.047200	0.785400	0.990292	-0.111113
0.264000	0.000000	0.682313	0.436350	0.436350	-0.392700	-0.785400	0.785400	1.047200	0.785400	0.785400	1.047200	0.785400	0.785400	1.047200	0.785400	0.785400	1.047200	0.785400	0.979736	-0.112732
0.265000	0.000000	0.687173	0.436350	0.436350	-0.392700	-0.785400	0.785400	1.047200	0.785400	0.785400	1.047200	0.785400	0.785400	1.047200	0.785400	0.785400	1.047200	0.785400	0.969207	-0.114347
0.266000	0.000000	0.692020	0.436350	0.436350	-0.392700	-0.785400	0.785400	1.047200	0.785400	0.785400	1.047200	0.785400	0.785400	1.047200	0.785400	0.785400	1.047200	0.785400	0.958705	-0.115957
0.267000	0.000000	0.696853	0.436350	0.436350	-0.392700	-0.785400	0.785400	1.047200	0.785400	0.785400	1.047200	0.785400	0.785400	1.047200	0.785400	0.785400	1.047200	0.785400	0.948233	-0.117564
0.268000	0.000000	0.701672	0.436350	0.436350	-0.392700	-0.785400	0.785400	1.047200	0.785400	0.785400	1.047200	0.785400	0.785400	1.047200	0.785400	0.785400	1.047200	0.785400	0.937792	-0.119165
0.269000	0.000000	0.706476	0.436350	0.436350	-0.392700	-0.785400	0.785400	1.047200	0.785400	0.785400	1.047200	0.785400	0.785400	1.047200	0.785400	0.785400	1.047200	0.785400	0.927383	-0.120761
0.270000	0.000000	0.711264	0.436350	0.436350	-0.392700	-0.785400	0.785400	1.047200	0.785400	0.785400	1.047200	0.785400	0.785400	1.047200	0.785400	0.785400	1.047200	0.785400	0.917010	-0.122352
0.271000	0.000000	0.716035	0.436350	0.436350	-0.392700	-0.785400	0.785400	1.047200	0.785400	0.785400	1.047200	0.785400	0.785400	1.047200	0.785400	0.785400	1.047200	0.785400	0.906672	-0.123938
0.272000	0.000000	0.720789	0.436350	0.436350	-0.392700	-0.785400	0.785400	1.047200	0.785400	0.785400	1.047200	0.785400	0.785400	1.047200	0.785400	0.785400	1.047200	0.785400	0.896372	-0.125518
0.273000	0.000000	0.725525	0.436350	0.436350	-0.392700	-0.785400	0.785400	1.047200	0.785400	0.785400	1.047200	0.785400	0.785400	1.047200	0.785400	0.785400	1.047200	0.785400	0.886111	-0.127092
0.274000	0.000000	0.730242	0.436350	0.436350	-0.392700	-0.785400	0.785400	1.047200	0.785400	0.785400	1.047200	0.785400	0.785400	1.047200	0.785400	0.785400	1.047200	0.785400	0.875890	-0.128659
0.275000	0.000000	0.734940	0.436350	0.436350	-0.392700	-0.785400	0.785400	1.047200	0.785400	0.785400	1.047200	0.785400	0.785400	1.047200	0.785400	0.785400	1.047200	0.785400	0.865712	-0.130220
0.276000	0.000000	0.739618	0.436350	0.436350	-0.392700	-0.785400	0.785400	1.047200	0.785400	0.785400	1.047200	0.785400	0.785400	1.047200	0.785400	0.785400	1.047200	0.785400	0.855577	-0.131775
0.277000	0.000000	0.744274	0.436350	0.436350	-0.392700	-0.785400	0.785400	1.047200	0.785400	0.785400	1.047200	0.785400	0.785400	1.047200	0.785400	0.785400	1.047200	0.785400	0.845487	-0.133322
0.278000	0.000000	0.748910	0.436350	0.436350	-0.392700	-0.785400	0.785400	1.047200	0.785400	0.785400	1.047200	0.785400	0.785400	1.047200	0.785400	0.785400	1.047200	0.785400	0.835443	-0.134863
0.279000	0.000000	0.753524	0.436350	0.436350	-0.392700	-0.785400	0.785400	1.047200	0.785400	0.785400	1.047200	0.785400	0.785400	1.047200	0.785400	0.785400	1.047200	0.785400	0.825447	-0.136396
0.280000	0.000000	0.758115	0.436350	0.436350	-0.392700	-0.785400	0.785400	1.047200	0.785400	0.785400	1.047200	0.785400	0.785400	1.047200	0.785400	0.785400	1.047200	0.785400	0.815500	-0.137922
0.281000	0.000000	0.762682	0.436350	0.436350	-0.392700	-0.785400	0.785400	1.047200	0.785400	0.785400	1.047200	0.785400	0.785400	1.047200	0.785400	0.785400	1.047200	0.785400	0.805603	-0.139440
0.282000	0.000000	0.767227	0.436350	0.436350	-0.392700	-0.785400	0.785400	1.047200	0.785400	0.785400	1.047200	0.785400	0.785400	1.047200	0.785400	0.785400	1.047200	0.785400	0.795757	-0.140950
0.283000	0.000000	0.771746	0.436350	0.436350	-0.392700	-0.785400	0.785400	1.047200	0.785400	0.785400	1.047200	0.785400	0.785400	1.047200	0.785400	0.785400	1.047200	0.785400	0.785965	-0.142452
0.284000	0.000000	0.776241	0.436350	0.436350	-0.392700	-0.785400	0.785400	1.047200	0.785400	0.785400	1.047200	0.785400	0.785400	1.047200	0.785400	0.785400	1.047200	0.785400	0.776226	-0.143945
0.285000	0.000000	0.780711	0.436350	0.436350	-0.392700	-0.785400	0.785400	1.047200	0.785400	0.785400	1.047200	0.785400	0.785400	1.047200	0.785400	0.785400	1.047200	0.785400	0.766542	-0.145431
